HIERARCHY
ROOT hips
{
  OFFSET 0 10.6860622 2.3727825e-15
  CHANNELS 6 Xposition Yposition Zposition Yrotation Xrotation Zrotation
  JOINT leftUpperLeg
  {
    OFFSET 0.6642549969 -0.9402397400000004 0
    CHANNELS 3 Yrotation Xrotation Zrotation
    JOINT leftLowerLeg
    {
      OFFSET 0 -3.997221335632195 0
      CHANNELS 3 Yrotation Xrotation Zrotation
      JOINT leftFoot
      {
        OFFSET -0.13777839790000004 -4.6145792000000005 -0.22186036399999998
        CHANNELS 3 Yrotation Xrotation Zrotation
        JOINT leftToes
        {
          OFFSET -0.03777410834999995 -0.9130806927000008 0.85230013
          CHANNELS 3 Yrotation Xrotation Zrotation
          End Site
          {
            OFFSET -0.03777410834999995 -0.9130806927000008 0.85230013
          }
        }
      }
    }
  }
  JOINT rightUpperLeg
  {
    OFFSET -0.6642778626 -0.9402397400000004 0
    CHANNELS 3 Yrotation Xrotation Zrotation
    JOINT rightLowerLeg
    {
      OFFSET 0 -3.997221452859387 0
      CHANNELS 3 Yrotation Xrotation Zrotation
      JOINT rightFoot
      {
        OFFSET 0.1377926176 -4.6145792000000005 -0.22185782299999995
        CHANNELS 3 Yrotation Xrotation Zrotation
        JOINT rightToes
        {
          OFFSET 0.037780746850000047 -0.9130806927000008 0.85230167
          CHANNELS 3 Yrotation Xrotation Zrotation
          End Site
          {
            OFFSET 0.037780746850000047 -0.9130806927000008 0.85230167
          }
        }
      }
    }
  }
  JOINT spine
  {
    OFFSET 0 0.13988381660000015 0
    CHANNELS 3 Yrotation Xrotation Zrotation
    JOINT chest
    {
      OFFSET 0 0.6191039003973773 0
      CHANNELS 3 Yrotation Xrotation Zrotation
      JOINT upperChest
      {
        OFFSET 0 0.9855186130586943 0
        CHANNELS 3 Yrotation Xrotation Zrotation
        JOINT leftShoulder
        {
          OFFSET 0.1807663869 1.5087829790000005 0
          CHANNELS 3 Yrotation Xrotation Zrotation
          JOINT leftUpperArm
          {
            OFFSET 0.5985063006419806 0 0
            CHANNELS 3 Yrotation Xrotation Zrotation
            JOINT leftLowerArm
            {
              OFFSET 2.2993332369501065 0 0
              CHANNELS 3 Yrotation Xrotation Zrotation
              JOINT leftHand
              {
                OFFSET 2.395047042602395 0 0
                CHANNELS 3 Yrotation Xrotation Zrotation
                JOINT leftIndexProximal
                {
                  OFFSET 0.5766295810000004 0.04556643899499946 0.17265095988184
                  CHANNELS 3 Yrotation Xrotation Zrotation
                  JOINT leftIndexIntermediate
                  {
                    OFFSET 0.2957229000000008 -0.019352197700001517 -0.007932640616999987
                    CHANNELS 3 Yrotation Xrotation Zrotation
                    JOINT leftIndexDistal
                    {
                      OFFSET 0.19008243099999922 -0.012484908149998475 -0.002786250786000012
                      CHANNELS 3 Yrotation Xrotation Zrotation
                      End Site
                      {
                        OFFSET 0.19008243099999922 -0.012484908149998475 -0.002786250786000012
                      }
                    }
                  }
                }
                JOINT leftMiddleProximal
                {
                  OFFSET 0.5834975091000001 0.0524350405149987 0.02204081888183999
                  CHANNELS 3 Yrotation Xrotation Zrotation
                  JOINT leftMiddleIntermediate
                  {
                    OFFSET 0.33880573540000003 -0.019871473270000717 -0.00000971183179999946
                    CHANNELS 3 Yrotation Xrotation Zrotation
                    JOINT leftMiddleDistal
                    {
                      OFFSET 0.20676022730000088 -0.012221336379999448 0.0001471936708000235
                      CHANNELS 3 Yrotation Xrotation Zrotation
                      End Site
                      {
                        OFFSET 0.20676022730000088 -0.012221336379999448 0.0001471936708000235
                      }
                    }
                  }
                }
                JOINT leftLittleProximal
                {
                  OFFSET 0.5344154683999995 -0.012880921405001189 -0.24414037221816004
                  CHANNELS 3 Yrotation Xrotation Zrotation
                  JOINT leftLittleIntermediate
                  {
                    OFFSET 0.21758961730000093 -0.011650919939999227 0.011893592810000034
                    CHANNELS 3 Yrotation Xrotation Zrotation
                    JOINT leftLittleDistal
                    {
                      OFFSET 0.1475273964999999 -0.008152365682999818 0.006001092492999946
                      CHANNELS 3 Yrotation Xrotation Zrotation
                      End Site
                      {
                        OFFSET 0.1475273964999999 -0.008152365682999818 0.006001092492999946
                      }
                    }
                  }
                }
                JOINT leftRingProximal
                {
                  OFFSET 0.5799399463000003 0.026911854694997794 -0.12150566991816003
                  CHANNELS 3 Yrotation Xrotation Zrotation
                  JOINT leftRingIntermediate
                  {
                    OFFSET 0.26167887460000006 -0.013480186499999602 0.010996293000000053
                    CHANNELS 3 Yrotation Xrotation Zrotation
                    JOINT leftRingDistal
                    {
                      OFFSET 0.17667108799999987 -0.008990287899999228 0.0055541023999999065
                      CHANNELS 3 Yrotation Xrotation Zrotation
                      End Site
                      {
                        OFFSET 0.17667108799999987 -0.008990287899999228 0.0055541023999999065
                      }
                    }
                  }
                }
                JOINT leftThumbProximal
                {
                  OFFSET 0.11018806699999972 -0.09448718900500053 0.17047963138184
                  CHANNELS 3 Yrotation Xrotation Zrotation
                  JOINT leftThumbIntermediate
                  {
                    OFFSET 0.31062601459999983 -0.08126270900000132 0.15443142000000007
                    CHANNELS 3 Yrotation Xrotation Zrotation
                    JOINT leftThumbDistal
                    {
                      OFFSET 0.21627175790000086 -0.08833193599999878 0.018771167799999988
                      CHANNELS 3 Yrotation Xrotation Zrotation
                      End Site
                      {
                        OFFSET 0.21627175790000086 -0.08833193599999878 0.018771167799999988
                      }
                    }
                  }
                }
              }
            }
          }
        }
        JOINT neck
        {
          OFFSET 0 1.5463305265074576 0
          CHANNELS 3 Yrotation Xrotation Zrotation
          JOINT head
          {
            OFFSET 0 0.8456443600000344 0
            CHANNELS 3 Yrotation Xrotation Zrotation
            JOINT leftEye
            {
              OFFSET 0.30408573140000006 0.5104519199999995 0.1276382305
              CHANNELS 3 Yrotation Xrotation Zrotation
              End Site
              {
                OFFSET 0.30408573140000006 0.5104519199999995 0.1276382305
              }
            }
            JOINT rightEye
            {
              OFFSET -0.30409491089999996 0.5104519199999995 0.1276379445
              CHANNELS 3 Yrotation Xrotation Zrotation
              End Site
              {
                OFFSET -0.30409491089999996 0.5104519199999995 0.1276379445
              }
            }
            JOINT jaw
            {
              OFFSET -3.155239131000001e-7 -0.11984121820000082 0.60178107
              CHANNELS 3 Yrotation Xrotation Zrotation
              End Site
              {
                OFFSET -3.155239131000001e-7 -0.11984121820000082 0.60178107
              }
            }
          }
        }
        JOINT rightShoulder
        {
          OFFSET -0.1807303465 1.5087829790000005 0
          CHANNELS 3 Yrotation Xrotation Zrotation
          JOINT rightUpperArm
          {
            OFFSET -0.5985063796536958 0 0
            CHANNELS 3 Yrotation Xrotation Zrotation
            JOINT rightLowerArm
            {
              OFFSET -2.2993322059002854 0 0
              CHANNELS 3 Yrotation Xrotation Zrotation
              JOINT rightHand
              {
                OFFSET -2.395045314457259 0 0
                CHANNELS 3 Yrotation Xrotation Zrotation
                JOINT rightIndexProximal
                {
                  OFFSET -0.5764487688300002 0.0441371204405987 0.17361932004999997
                  CHANNELS 3 Yrotation Xrotation Zrotation
                  JOINT rightIndexIntermediate
                  {
                    OFFSET -0.29573011380000047 -0.01934826376999843 -0.007698921482999974
                    CHANNELS 3 Yrotation Xrotation Zrotation
                    JOINT rightIndexDistal
                    {
                      OFFSET -0.19008373999999884 -0.012503266380000655 -0.0026365778999999897
                      CHANNELS 3 Yrotation Xrotation Zrotation
                      End Site
                      {
                        OFFSET -0.19008373999999884 -0.012503266380000655 -0.0026365778999999897
                      }
                    }
                  }
                }
                JOINT rightMiddleProximal
                {
                  OFFSET -0.5834852037300005 0.05211639405060153 0.02307162440000001
                  CHANNELS 3 Yrotation Xrotation Zrotation
                  JOINT rightMiddleIntermediate
                  {
                    OFFSET -0.33880114510000003 -0.019952774050000954 0.0002455003561999819
                    CHANNELS 3 Yrotation Xrotation Zrotation
                    JOINT rightMiddleDistal
                    {
                      OFFSET -0.20675694929999955 -0.012273788999999091 0.00030209124000002766
                      CHANNELS 3 Yrotation Xrotation Zrotation
                      End Site
                      {
                        OFFSET -0.20675694929999955 -0.012273788999999091 0.00030209124000002766
                      }
                    }
                  }
                }
                JOINT rightLittleProximal
                {
                  OFFSET -0.5346811737299992 -0.011214256288399227 -0.24363941305000003
                  CHANNELS 3 Yrotation Xrotation Zrotation
                  JOINT rightLittleIntermediate
                  {
                    OFFSET -0.21757715980000092 -0.011771559690000988 0.01201554387
                    CHANNELS 3 Yrotation Xrotation Zrotation
                    JOINT rightLittleDistal
                    {
                      OFFSET -0.1475201849000004 -0.00822055339600003 0.006082065407000015
                      CHANNELS 3 Yrotation Xrotation Zrotation
                      End Site
                      {
                        OFFSET -0.1475201849000004 -0.00822055339600003 0.006082065407000015
                      }
                    }
                  }
                }
                JOINT rightRingProximal
                {
                  OFFSET -0.5800810755299999 0.027657985680600072 -0.12066365025000003
                  CHANNELS 3 Yrotation Xrotation Zrotation
                  JOINT rightRingIntermediate
                  {
                    OFFSET -0.26166445029999974 -0.013623118409999302 0.011164098990000045
                    CHANNELS 3 Yrotation Xrotation Zrotation
                    JOINT rightRingDistal
                    {
                      OFFSET -0.17666387530000027 -0.009072900100000503 0.005668185599999959
                      CHANNELS 3 Yrotation Xrotation Zrotation
                      End Site
                      {
                        OFFSET -0.17666387530000027 -0.009072900100000503 0.005668185599999959
                      }
                    }
                  }
                }
                JOINT rightThumbProximal
                {
                  OFFSET -0.10997596379000074 -0.09577489355940072 0.16989765924999997
                  CHANNELS 3 Yrotation Xrotation Zrotation
                  JOINT rightThumbIntermediate
                  {
                    OFFSET -0.31036620999999986 -0.08229339117999834 0.15440884469999996
                    CHANNELS 3 Yrotation Xrotation Zrotation
                    JOINT rightThumbDistal
                    {
                      OFFSET -0.21631306399999906 -0.08825326400000111 0.018656797720000014
                      CHANNELS 3 Yrotation Xrotation Zrotation
                      End Site
                      {
                        OFFSET -0.21631306399999906 -0.08825326400000111 0.018656797720000014
                      }
                    }
                  }
                }
              }
            }
          }
        }
      }
    }
  }
}
MOTION
Frames: 7
Frame Time: 0.03333333333333333
-0.08303520089667402 -0.5699712469591478 0.4973748950626544 0 -31.283485277171305 0 12.680430017573205 14.81392945346224 8.907102590179889 2.565869730112571 29.01771416839117 6.618055559004494 6.9463893936412635 -17.476637861200018 -17.782173060506963 0 0 0 -12.696422118963893 14.877720107048628 -7.95012993263511 -2.6050752567832878 29.353701263496784 -6.65132089022588 -7.159829923541469 -17.8899718262495 17.060983425957666 0 0 0 -0.10843975174937404 11.454625930905317 0.10157609326295085 -0.8560630825223903 38.47607969795964 -1.1577869425302365 0 0 0 0.025759621736044843 1.3347641303337436 -8.002015108760572 -1.7556662119883164 -3.6248575458817576 -57.701763348095675 -26.001496842999032 0 0 0 0 -7.00032480930298 0 0 0 0 0 0 0 0 0 0 0 0 0 0 0 0 0 0 0 0 0 0 0 0 0 0 0 0 0 0 0 0 0 0 0 0 0 0 0 0 0 0 0 0 0 0 -33.66962164295104 0 0 -26.39193279445214 0 0 0 0 0 0 0 0 0 0 -0.029243402907338244 1.3350069881234694 7.998422164999694 1.7527282713472003 -3.6231067972457236 57.69784461769609 25.99790907540632 0 0 0 0 6.996825090742016 0 0 0 0 0 0 0 0 0 0 0 0 0 0 0 0 0 0 0 0 0 0 0 0 0 0 0 0 0 0 0 0 0 0 0 0 0 0 0 0 0 0 0 0 0
-0.08303520089667402 -0.5699712469591478 0.49493843002373783 0 -30.923614194650195 0 12.626173929802851 14.397019062334687 8.808082161579557 2.5756608849575984 29.11174858707827 6.634721464554088 6.9463893936412635 -17.476637861200018 -17.782173060506963 0 0 0 -12.64473562647676 14.460579250938627 -7.8500652007224785 -2.615208305278697 29.447023309601487 -6.670264074033819 -7.159829923541469 -17.8899718262495 17.060983425957666 0 0 0 -0.10884860732124174 11.303219560908202 0.09434209806736843 -0.8536863616716931 38.27675840944684 -1.1540113527159839 0 0 0 0.025759621736044843 1.3347641303337436 -8.002015108760572 -1.7556662119883164 -3.6248575458817576 -57.701763348095675 -26.001496842999032 0 0 0 0 -7.00032480930298 0 0 0 0 0 0 0 0 0 0 0 0 0 0 0 0 0 0 0 0 0 0 0 0 0 0 0 0 0 0 0 0 0 0 0 0 0 0 0 0 0 0 0 0 0 0 -33.265895219350774 0 0 -26.087386592091363 0 0 0 0 0 0 0 0 0 0 -0.029243402907338244 1.3350069881234694 7.998422164999694 1.7527282713472003 -3.6231067972457236 57.69784461769609 25.99790907540632 0 0 0 0 6.996825090742016 0 0 0 0 0 0 0 0 0 0 0 0 0 0 0 0 0 0 0 0 0 0 0 0 0 0 0 0 0 0 0 0 0 0 0 0 0 0 0 0 0 0 0 0 0
-0.08303520089667402 -0.5699712469591478 0.4925019649848213 0 -30.563747582787368 0 12.572760377034825 13.98001933526284 8.709650827768154 2.585492130829035 29.20578099432082 6.651421821003351 6.9463893936412635 -17.476637861200018 -17.782173060506963 0 0 0 -12.593895498877087 14.043350617125352 -7.75057258711008 -2.6253862862796145 29.540342926737573 -6.6892433390813 -7.159829923541469 -17.8899718262495 17.060983425957666 0 0 0 -0.10928535285057508 11.151813931015218 0.08710669047881933 -0.8513327927544225 38.07743180759472 -1.1502565022998388 0 0 0 0.025759621736044843 1.3347641303337436 -8.002015108760572 -1.7556662119883164 -3.6248575458817576 -57.701763348095675 -26.001496842999032 0 0 0 0 -7.00032480930298 0 0 0 0 0 0 0 0 0 0 0 0 0 0 0 0 0 0 0 0 0 0 0 0 0 0 0 0 0 0 0 0 0 0 0 0 0 0 0 0 0 0 0 0 0 0 -32.86216848594092 0 0 -25.78284394816087 0 0 0 0 0 0 0 0 0 0 -0.029243402907338244 1.3350069881234694 7.998422164999694 1.7527282713472003 -3.6231067972457236 57.69784461769609 25.99790907540632 0 0 0 0 6.996825090742016 0 0 0 0 0 0 0 0 0 0 0 0 0 0 0 0 0 0 0 0 0 0 0 0 0 0 0 0 0 0 0 0 0 0 0 0 0 0 0 0 0 0 0 0 0
-0.08303520089667402 -0.5699712469591478 0.48762903490698806 0 -29.842858991379153 0 12.468179208374336 13.143833408426877 8.514050941052561 2.60527808237214 29.39386624546129 6.684927306126793 6.9463893936412635 -17.476637861200018 -17.782173060506963 0 0 0 -12.4944904222422 13.206715298625097 -7.552797987437538 -2.6458806933050045 29.727011233177972 -6.727316232343944 -7.159829923541469 -17.8899718262495 17.060983425957666 0 0 0 -0.1100518886606775 10.848916339619153 0.07265400409751775 -0.8466923359207122 37.67857633164523 -1.1428051003093873 0 0 0 0.025759621736044843 1.3347641303337436 -8.002015108760572 -1.7556662119883164 -3.624858829109462 -57.70177096151266 -26.001496842999032 0 0 0 0 -7.00032480930298 0 0 0 0 0 0 0 0 0 0 0 0 0 0 0 0 0 0 0 0 0 0 0 0 0 0 0 0 0 0 0 0 0 0 0 0 0 0 0 0 0 0 0 0 0 0 -32.05307939290798 0 0 -25.173052006440095 0 0 0 0 0 0 0 0 0 0 -0.029243402907338244 1.3350069881234694 7.998422164999694 1.7527282713472003 -3.6231067972457236 57.69784461769609 25.99790907540632 0 0 0 0 6.996825090742016 0 0 0 0 0 0 0 0 0 0 0 0 0 0 0 0 0 0 0 0 0 0 0 0 0 0 0 0 0 0 0 0 0 0 0 0 0 0 0 0 0 0 0 0 0
-0.08303520089667402 -0.5699712469591478 0.4851927040642072 0 -29.481860242096257 0 12.417010315029335 12.724698033593812 8.416875764735556 2.6152328237751936 29.487911788075817 6.701732418608459 6.9463893936412635 -17.476637861200018 -17.782173060506963 0 0 0 -12.445921522278036 12.787360276651315 -7.454508817088307 -2.6561966893356623 29.820344727507365 -6.746410962894328 -7.159829923541469 -17.8899718262495 17.060983425957666 0 0 0 -0.11038214395840423 10.697424090313483 0.06543518440733388 -0.8444045200007503 37.47905665100596 -1.1391072161715423 0 0 0 0.025759621736044843 1.3347641303337436 -8.002015108760572 -1.7556662119883164 -3.6248584013668936 -57.70176624058775 -26.001496842999032 0 0 0 0 -7.00032480930298 0 0 0 0 0 0 0 0 0 0 0 0 0 0 0 0 0 0 0 0 0 0 0 0 0 0 0 0 0 0 0 0 0 0 0 0 0 0 0 0 0 0 0 0 0 0 -31.647747777809986 0 0 -24.867830497893056 0 0 0 0 0 0 0 0 0 0 -0.029243402907338244 1.3350069881234694 7.998422164999694 1.7527282713472003 -3.6231067972457236 57.69784461769609 25.99790907540632 0 0 0 0 6.996825090742016 0 0 0 0 0 0 0 0 0 0 0 0 0 0 0 0 0 0 0 0 0 0 0 0 0 0 0 0 0 0 0 0 0 0 0 0 0 0 0 0 0 0 0 0 0
-0.08303520089667402 -0.5699712469591478 0.48275637322142634 0 -29.120860626427152 0 12.366653165697846 12.3054796647541 8.320241707398377 2.6252286756912193 29.581954385014274 6.718571487595662 6.9463893936412635 -17.476637861200018 -17.782173060506963 0 0 0 -12.398168641439607 12.367925443384275 -7.356743276839642 -2.6665585208614018 29.913676798371306 -6.765542316117977 -7.159829923541469 -17.8899718262495 17.060983425957666 0 0 0 -0.11074053417178704 10.545932783671615 0.05821451642715985 -0.8421390684940636 37.27953606938673 -1.1354293052168536 0 0 0 0.025759621736044843 1.3347641303337436 -8.002015108760572 -1.7556662119883164 -3.6248575458817576 -57.701763348095675 -26.001496842999032 0 0 0 0 -7.00032480930298 0 0 0 0 0 0 0 0 0 0 0 0 0 0 0 0 0 0 0 0 0 0 0 0 0 0 0 0 0 0 0 0 0 0 0 0 0 0 0 0 0 0 0 0 0 0 -31.242414389261178 0 0 -24.56260979769161 0 0 0 0 0 0 0 0 0 0 -0.029243402907338244 1.3350069881234694 7.998422164999694 1.7527282713472003 -3.6231067972457236 57.69784461769609 25.99790907540632 0 0 0 0 6.996825090742016 0 0 0 0 0 0 0 0 0 0 0 0 0 0 0 0 0 0 0 0 0 0 0 0 0 0 0 0 0 0 0 0 0 0 0 0 0 0 0 0 0 0 0 0 0
-0.08303520089667402 -0.5699712469591478 0.47788344314359316 0 -28.39781779658405 0 12.268127819963986 11.465049998361362 8.128145443011297 2.6453474978531815 29.77005926470489 6.7523601324065 6.9463893936412635 -17.476637861200018 -17.782173060506963 0 0 0 -12.304876841821933 11.527063129286663 -7.162325556446473 -2.6874215226647653 30.10035935713229 -6.803921140200572 -7.159829923541469 -17.8899718262495 17.060983425957666 0 0 0 -0.11135082031830457 10.242872412363042 0.043790148583758896 -0.8376722965525137 36.880303294002765 -1.1281299977377768 0 0 0 0.025759621736044843 1.3347641303337436 -8.002015108760572 -1.7556662119883164 -3.624858829109462 -57.70177096151266 -26.001496842999032 0 0 0 0 -7.00032480930298 0 0 0 0 0 0 0 0 0 0 0 0 0 0 0 0 0 0 0 0 0 0 0 0 0 0 0 0 0 0 0 0 0 0 0 0 0 0 0 0 0 0 0 0 0 0 -30.430263873706895 0 0 -23.95152722680204 0 0 0 0 0 0 0 0 0 0 -0.029243402907338244 1.3350069881234694 7.998422164999694 1.7527282713472003 -3.6231067972457236 57.69784461769609 25.99790907540632 0 0 0 0 6.996825090742016 0 0 0 0 0 0 0 0 0 0 0 0 0 0 0 0 0 0 0 0 0 0 0 0 0 0 0 0 0 0 0 0 0 0 0 0 0 0 0 0 0 0 0 0 0
